<svg xmlns="http://www.w3.org/2000/svg" width="43.202" height="46.098" viewBox="0 0 43.202 46.098"><g transform="translate(0 512.184)"><path d="M32.688-487.65a4.056,4.056,0,0,0,3.764,2.557H40.5v-2.7h2.7v-2.7H40.5v-2.7h-4.05a4.057,4.057,0,0,0-3.852,2.8,6.76,6.76,0,0,0-5.6,6.65,6.758,6.758,0,0,0,6.75,6.75h5.4a1.352,1.352,0,0,1,1.35,1.35,1.352,1.352,0,0,1-1.35,1.35H24.3v-37.892H0V-466.1H24.3v-5.49H39.152a4.055,4.055,0,0,0,4.05-4.05,4.055,4.055,0,0,0-4.05-4.05h-5.4a4.055,4.055,0,0,1-4.05-4.05A4.057,4.057,0,0,1,32.688-487.65Zm3.764-2.843H37.8v2.7h-1.35a1.352,1.352,0,0,1-1.35-1.35A1.352,1.352,0,0,1,36.452-490.493Z" fill="#fff"/><path d="M94.177-151a4.055,4.055,0,0,0-4.05,4.05,4.055,4.055,0,0,0,4.05,4.05,4.055,4.055,0,0,0,4.05-4.05A4.055,4.055,0,0,0,94.177-151Zm0,5.4a1.352,1.352,0,0,1-1.35-1.35,1.352,1.352,0,0,1,1.35-1.35,1.352,1.352,0,0,1,1.35,1.35A1.352,1.352,0,0,1,94.177-145.6Z" transform="translate(-82.016 -328.676)" fill="#8a00e5"/><path d="M120.127-208.3h2.7V-211h-2.7Z" transform="translate(-109.315 -274.076)" fill="#8a00e5"/><path d="M60.127-443.9h13.5V-452h-13.5Zm10.8-2.7h-8.1v-2.7h8.1Z" transform="translate(-54.716 -54.767)" fill="#8a00e5"/><path d="M24.428-465.918V-512H.127v46.082Zm-2.7-43.382v11.591l-4.61,4.61H7.437l-4.61-4.61V-509.3Zm-18.9,40.682V-493.89L6.318-490.4H18.237l3.491-3.491v25.272Z" transform="translate(-0.116 -0.167)" fill="#8a00e5"/></g></svg>