<svg id="Layer_1" data-name="Layer 1" xmlns="http://www.w3.org/2000/svg" viewBox="0 0 24 24"><defs><style>.cls-1{fill:#686868;}.cls-2{fill:none;}</style></defs><title>Artboard 1</title><path class="cls-1" d="M4.1,5.3a2.6,2.6,0,0,1-.5,1.9,1.5,1.5,0,0,1-1.4.7A1.9,1.9,0,0,1,.7,7.3,4.8,4.8,0,0,1,.2,5.4v-1A3.1,3.1,0,0,1,.7,2.5a1.6,1.6,0,0,1,1.5-.7,1.7,1.7,0,0,1,1.4.6,3.6,3.6,0,0,1,.5,1.9Zm-1-1.1A2.2,2.2,0,0,0,2.9,3a.8.8,0,0,0-.7-.4.7.7,0,0,0-.7.4,1.6,1.6,0,0,0-.3,1.1V5.5a2.1,2.1,0,0,0,.3,1.2.7.7,0,0,0,.7.4.8.8,0,0,0,.7-.4,2.7,2.7,0,0,0,.2-1.1Z"/><path class="cls-1" d="M8.6,6.6a.5.5,0,0,0-.2-.4L7.6,6l-.8-.3a1,1,0,0,1-.7-1,1.3,1.3,0,0,1,.4-1,2.8,2.8,0,0,1,1.3-.4A2.1,2.1,0,0,1,9,3.7a1.1,1.1,0,0,1,.5,1h-1a.4.4,0,0,0-.2-.4c-.1-.2-.3-.2-.5-.2H7.2a.8.8,0,0,0-.2.4.5.5,0,0,0,.2.4,1.3,1.3,0,0,0,.8.2l.9.3c.2.2.4.3.5.5s.1.3.1.6a1,1,0,0,1-.4.9,2,2,0,0,1-1.3.4l-1-.2a1,1,0,0,1-.6-.5,1.3,1.3,0,0,1-.3-.8h1a1.1,1.1,0,0,0,.2.6l.7.2L8.4,7A.5.5,0,0,0,8.6,6.6Z"/><path class="cls-1" d="M11.1,2.4v1h.8v.8h-.8V6.6c0,.2.1.3.1.4h.7v.8h-.6c-.8,0-1.1-.4-1.1-1.3V4.2H9.4V3.4h.8v-1Z"/><path class="cls-1" d="M11.9,5.6a4.3,4.3,0,0,1,.2-1.2,2.7,2.7,0,0,1,.7-.8,2,2,0,0,1,1.1-.3,1.7,1.7,0,0,1,1.4.6,2,2,0,0,1,.6,1.5v.3a2,2,0,0,1-.2,1.1,1.9,1.9,0,0,1-.7.8,2.2,2.2,0,0,1-2.6-.3,2.9,2.9,0,0,1-.5-1.7Zm1,.1a1.5,1.5,0,0,0,.2,1,1,1,0,0,0,1.6,0A1.6,1.6,0,0,0,15,5.6a1.8,1.8,0,0,0-.3-1.1,1.2,1.2,0,0,0-.8-.4,1.2,1.2,0,0,0-.8.4A2.2,2.2,0,0,0,12.9,5.7Z"/><path class="cls-1" d="M18.1,7.1l.6-.2a1.3,1.3,0,0,0,.3-.5h.9a1.1,1.1,0,0,1-.3.7c-.1.3-.3.4-.6.6l-.9.2a2,2,0,0,1-1.5-.6,2.6,2.6,0,0,1-.5-1.7h0a2.8,2.8,0,0,1,.5-1.6,2,2,0,0,1,1.5-.6,2.1,2.1,0,0,1,1.3.5A1.7,1.7,0,0,1,19.9,5H19c-.1-.3-.1-.5-.3-.6a.9.9,0,0,0-.6-.3.9.9,0,0,0-.8.4,2.5,2.5,0,0,0-.2,1v.2a3.1,3.1,0,0,0,.2,1.1A1.1,1.1,0,0,0,18.1,7.1Z"/><path class="cls-1" d="M21.6,5.9l-.5.5V7.8h-1V1.6h1V5.2l.3-.4,1.2-1.4h1.2L22.2,5.3,24,7.8H22.9Z"/><path class="cls-2" d="M2.9,6.8H22.6V26.4H2.9Zm0,0H22.6V26.4H2.9Zm0,0H22.6V26.4H2.9Zm0,0H22.6V26.4H2.9Z"/><path class="cls-1" d="M12.8,11.7A8,8,0,0,1,20,16.2a8.6,8.6,0,0,1-2,2.6l1.2,1.1a10.8,10.8,0,0,0,2.6-3.7,9.6,9.6,0,0,0-9-6.1,9.5,9.5,0,0,0-3,.4l1.3,1.4Zm-.9.9,1.7,1.7a1.8,1.8,0,0,1,1,1.1l1.7,1.7a2.9,2.9,0,0,0,.2-.9,3.8,3.8,0,0,0-3.7-3.7ZM4.6,10l2.2,2.1a9.3,9.3,0,0,0-3,4.1,9.7,9.7,0,0,0,9,6.2,10.4,10.4,0,0,0,3.5-.7l2.8,2.8,1.2-1.2L5.7,8.8Zm6.1,6.1,2.2,2.1a.1.1,0,0,0-.1.1,2.1,2.1,0,0,1-2.1-2.1ZM7.9,13.3l1.5,1.4a4,4,0,0,0-.3,1.5,3.7,3.7,0,0,0,3.7,3.7,3.2,3.2,0,0,0,1.4-.3l.8.8a7.8,7.8,0,0,1-2.2.3,8.1,8.1,0,0,1-7.3-4.5A9.8,9.8,0,0,1,7.9,13.3Z"/></svg>