<?xml version="1.0" encoding="utf-8"?>
<!-- Generator: Adobe Illustrator 24.0.0, SVG Export Plug-In . SVG Version: 6.00 Build 0)  -->
<svg version="1.1" id="Layer_1" xmlns="http://www.w3.org/2000/svg" xmlns:xlink="http://www.w3.org/1999/xlink" x="0px" y="0px"
	 viewBox="0 0 24 24" style="enable-background:new 0 0 24 24;" xml:space="preserve">
<style type="text/css">
	.st0{fill:#fff;}
</style>
<path class="st0" d="M12.8,11.7c3.1,0,5.9,1.7,7.2,4.5c-1.4,2.8-4.1,4.5-7.2,4.5S6.9,19,5.6,16.2C6.9,13.4,9.7,11.7,12.8,11.7
	 M12.8,10.1c-4.1,0-7.6,2.5-9,6.1c1.4,3.6,4.9,6.1,9,6.1s7.6-2.5,9-6.1C20.4,12.6,16.9,10.1,12.8,10.1z M12.8,14.2c1.1,0,2,0.9,2,2
	s-0.9,2-2,2s-2-0.9-2-2S11.6,14.2,12.8,14.2 M12.8,12.5c-2,0-3.7,1.7-3.7,3.7s1.7,3.7,3.7,3.7s3.7-1.7,3.7-3.7S14.8,12.5,12.8,12.5z
	"/>
<g>
	<path class="st0" d="M4.1,5.3c0,0.8-0.2,1.5-0.5,1.9C3.3,7.7,2.8,7.9,2.2,7.9c-0.6,0-1.1-0.2-1.4-0.6c-0.3-0.4-0.5-1-0.5-1.9v-1
		c0-0.8,0.2-1.5,0.5-1.9C1,2,1.5,1.8,2.2,1.8c0.6,0,1.1,0.2,1.4,0.6c0.3,0.4,0.5,1,0.5,1.9V5.3z M3.1,4.2c0-0.6-0.1-1-0.2-1.2
		C2.7,2.7,2.5,2.6,2.2,2.6C1.9,2.6,1.6,2.7,1.5,3S1.2,3.6,1.2,4.1v1.3c0,0.6,0.1,1,0.2,1.2C1.6,7,1.9,7.1,2.2,7.1
		c0.3,0,0.6-0.1,0.7-0.4C3,6.5,3.1,6.1,3.1,5.6V4.2z"/>
	<path class="st0" d="M8.6,6.6c0-0.2-0.1-0.3-0.2-0.4C8.2,6.1,8,6,7.6,6C7.3,5.9,7,5.8,6.8,5.7c-0.5-0.2-0.7-0.6-0.7-1
		c0-0.4,0.2-0.7,0.5-0.9c0.3-0.3,0.7-0.4,1.2-0.4c0.5,0,0.9,0.1,1.3,0.4c0.3,0.3,0.5,0.6,0.5,1h-1c0-0.2-0.1-0.3-0.2-0.5
		C8.2,4.1,8,4.1,7.8,4.1c-0.2,0-0.4,0.1-0.5,0.2C7.1,4.3,7,4.5,7,4.6C7,4.8,7.1,4.9,7.2,5C7.3,5.1,7.6,5.2,8,5.2
		c0.4,0.1,0.7,0.2,0.9,0.3C9.1,5.7,9.3,5.8,9.4,6s0.2,0.4,0.2,0.6c0,0.4-0.2,0.7-0.5,1C8.7,7.8,8.3,7.9,7.8,7.9
		c-0.4,0-0.7-0.1-1-0.2C6.5,7.6,6.3,7.4,6.2,7.2S5.9,6.7,5.9,6.4h1C6.9,6.7,7,6.8,7.1,7c0.2,0.1,0.4,0.2,0.6,0.2
		c0.3,0,0.5,0,0.6-0.1S8.6,6.8,8.6,6.6z"/>
	<path class="st0" d="M11.1,2.4v1.1h0.8v0.7h-0.8v2.4c0,0.2,0,0.3,0.1,0.4c0.1,0.1,0.2,0.1,0.4,0.1c0.1,0,0.2,0,0.3,0v0.8
		c-0.2,0.1-0.4,0.1-0.6,0.1c-0.8,0-1.1-0.4-1.1-1.3V4.2H9.4V3.4h0.7V2.4H11.1z"/>
	<path class="st0" d="M11.9,5.6c0-0.4,0.1-0.8,0.3-1.2c0.2-0.3,0.4-0.6,0.7-0.8c0.3-0.2,0.7-0.3,1.1-0.3c0.6,0,1.1,0.2,1.4,0.6
		c0.4,0.4,0.6,0.9,0.6,1.5l0,0.2c0,0.4-0.1,0.8-0.3,1.2S15.3,7.4,15,7.6c-0.3,0.2-0.7,0.3-1.1,0.3c-0.6,0-1.1-0.2-1.5-0.6
		C12.1,6.9,11.9,6.3,11.9,5.6L11.9,5.6z M12.9,5.7c0,0.5,0.1,0.8,0.3,1.1c0.2,0.3,0.4,0.4,0.8,0.4s0.6-0.1,0.8-0.4S15,6.1,15,5.6
		c0-0.4-0.1-0.8-0.3-1.1c-0.2-0.3-0.5-0.4-0.8-0.4c-0.3,0-0.6,0.1-0.8,0.4C12.9,4.8,12.9,5.2,12.9,5.7z"/>
	<path class="st0" d="M18.1,7.1c0.2,0,0.5-0.1,0.6-0.2c0.2-0.1,0.2-0.3,0.3-0.5h0.9c0,0.3-0.1,0.5-0.3,0.8S19.3,7.5,19,7.7
		c-0.3,0.1-0.6,0.2-0.9,0.2c-0.6,0-1.1-0.2-1.5-0.6c-0.4-0.4-0.5-0.9-0.5-1.6V5.5c0-0.7,0.2-1.2,0.5-1.6c0.4-0.4,0.8-0.6,1.5-0.6
		c0.5,0,0.9,0.2,1.3,0.5c0.3,0.3,0.5,0.7,0.5,1.2H19c0-0.3-0.1-0.5-0.3-0.6c-0.2-0.2-0.4-0.2-0.6-0.2c-0.3,0-0.6,0.1-0.7,0.3
		c-0.2,0.2-0.3,0.6-0.3,1.1v0.2c0,0.5,0.1,0.8,0.3,1.1S17.8,7.1,18.1,7.1z"/>
	<path class="st0" d="M21.6,5.9l-0.4,0.5v1.4h-1V1.6h1v3.6l0.3-0.4l1.2-1.4h1.2l-1.6,1.8L24,7.8h-1.1L21.6,5.9z"/>
</g>
</svg>
