<svg id="a8f936fb-4711-4ab9-aba0-f030f658779c" data-name="Layer 1" xmlns="http://www.w3.org/2000/svg" xmlns:xlink="http://www.w3.org/1999/xlink" viewBox="0 0 500 500">
  <defs>
    <radialGradient id="ab16a704-d6d7-45dc-87dc-c8db955db44c" cx="250" cy="250" r="250" gradientUnits="userSpaceOnUse">
      <stop offset="0" stop-color="#0097ff"/>
      <stop offset="1" stop-color="#006ae5"/>
    </radialGradient>
  </defs>
  <title>favicon</title>
  <circle cx="250" cy="250" r="250" style="fill: url(#ab16a704-d6d7-45dc-87dc-c8db955db44c)"/>
  <circle cx="250" cy="250" r="231" style="fill: none;stroke: #fdfeff;stroke-miterlimit: 10;stroke-width: 10px"/>
  <path id="a8e4dafe-85bb-414f-b6c4-13db3ff4381f" data-name="Path 33" d="M338.1,157.8a68.5,68.5,0,0,0-30.3-25,114.7,114.7,0,0,0-46.3-8.5H186.6a4.7,4.7,0,0,0-4.6,4.6V371.4a4.7,4.7,0,0,0,4.6,4.7h5.9a4.7,4.7,0,0,0,4.7-4.7h0V269.1h64.3a114.7,114.7,0,0,0,46.3-8.5,67.4,67.4,0,0,0,30.3-24.8A70.1,70.1,0,0,0,348.9,197a71.5,71.5,0,0,0-10.8-39M197.2,138.7h64.3c22.8,0,40.7,5.2,53.5,15.8a51.3,51.3,0,0,1,18.7,42.3A51.6,51.6,0,0,1,315,239.2c-12.6,10.1-30.5,15.5-53.5,15.5H197.2Z" style="fill: #fff;stroke: #fff;stroke-miterlimit: 10;stroke-width: 30px"/>
</svg>
