<svg id="b623833e-ed87-47ec-bd67-39f99547ed67" data-name="Layer 1" xmlns="http://www.w3.org/2000/svg" viewBox="0 0 24 24">
  <defs>
    <style>
      .bb9a8700-e889-4b3e-ab20-068fcae01181 {
        fill: none;
      }

      .f226a8ff-0a0b-4820-b34f-cf2c6873c092 {
        fill: #e8e8e8;
      }

      .fb8ad40c-dbcf-4d5d-9883-117a8fc524cf {
        fill: #fff;
      }
    </style>
  </defs>
  <title>computer_id</title>
  <path class="bb9a8700-e889-4b3e-ab20-068fcae01181" d="M0,0H24V24H0Z"/>
  <path class="f226a8ff-0a0b-4820-b34f-cf2c6873c092" d="M11.2,14.5H2.6V4.6H17.4v8.9c.6-.1,1.1-.6,1.6-.2V4.6A1.6,1.6,0,0,0,17.4,3H2.6A1.6,1.6,0,0,0,1,4.6v9.9a1.6,1.6,0,0,0,1.6,1.6H6.7v1.6h3.4V16.1h1.1Zm4.5-7.4h-9V8.7h9Zm-4.5,3.3H6.7V12h4.5ZM5.9,7.1H4.3V8.7H5.9Zm0,3.3H4.3V12H5.9Z"/>
  <g>
    <path class="fb8ad40c-dbcf-4d5d-9883-117a8fc524cf" d="M12.4,12.2a.9.9,0,0,1,.9-1.1h.2a.9.9,0,0,1,.9.3,1.2,1.2,0,0,1,0,1.6l-.9.3a1,1,0,0,1-1.1-.9Zm2.2,10.2H12.5V14.3h2.1Z"/>
    <path class="fb8ad40c-dbcf-4d5d-9883-117a8fc524cf" d="M16.1,18.1a4.5,4.5,0,0,1,.7-3,2,2,0,0,1,1.9-.9,1.6,1.6,0,0,1,1.6.8V10.9h2.1V22.4H20.5v-.8a2.4,2.4,0,0,1-1.7.9,2.2,2.2,0,0,1-1.9-.9,4.3,4.3,0,0,1-.7-2.9Zm2.1.5a2.7,2.7,0,0,0,.3,1.7.8.8,0,0,0,.8.5,1.1,1.1,0,0,0,1-.6V16.5a1,1,0,0,0-1-.6.8.8,0,0,0-.8.5,2.5,2.5,0,0,0-.3,1.7Z"/>
  </g>
</svg>
