<svg id="b1325017-cb59-47d4-bb1c-db857974c515" data-name="Layer 1" xmlns="http://www.w3.org/2000/svg" viewBox="0 0 24 24">
  <defs>
    <style>
      .a63788e8-4551-4672-950b-5b0b015d69ee {
        fill: #fff;
      }
    </style>
  </defs>
  <title>cpu</title>
  <g>
    <path class="a63788e8-4551-4672-950b-5b0b015d69ee" d="M5,14.1c.7,0,1-.4,1-1.1H7.9a2.7,2.7,0,0,1-2.8,2.9,3.3,3.3,0,0,1-2.4-1,4.4,4.4,0,0,1-.8-2.8v-.7a4.4,4.4,0,0,1,.8-2.8,2.7,2.7,0,0,1,2.4-1,2.9,2.9,0,0,1,2.1.8,3.2,3.2,0,0,1,.7,2.3H6a1.5,1.5,0,0,0-.3-1c-.1-.3-.3-.4-.7-.4a.7.7,0,0,0-.7.4A2.8,2.8,0,0,0,4,11.2V12a4.9,4.9,0,0,0,.1,1.4l.3.6Z"/>
    <path class="a63788e8-4551-4672-950b-5b0b015d69ee" d="M15.3,12a6,6,0,0,1-.6,2.9,2.3,2.3,0,0,1-1.9,1,1.9,1.9,0,0,1-1.6-.8v3.7H9.1V7.7h2v.8a2,2,0,0,1,1.7-.9,2.2,2.2,0,0,1,1.9.9,5.5,5.5,0,0,1,.6,2.9Zm-2-.5A3.4,3.4,0,0,0,13,9.8a1.1,1.1,0,0,0-.9-.5,1,1,0,0,0-.9.6v3.7c.2.4.5.5,1,.5s.7-.1.8-.5a3.2,3.2,0,0,0,.3-1.6Z"/>
    <path class="a63788e8-4551-4672-950b-5b0b015d69ee" d="M20.5,15a2,2,0,0,1-1.7.9,2.1,2.1,0,0,1-1.7-.8,3.4,3.4,0,0,1-.5-2.2V7.7h2V13c.1.7.3,1.1.8,1.1a1.3,1.3,0,0,0,1.1-.6V7.7h2.1v8h-2Z"/>
  </g>
</svg>
