<svg id="e6d65b4a-9ef4-4dfe-9188-f07214297048" data-name="Layer 1" xmlns="http://www.w3.org/2000/svg" viewBox="0 0 24 24">
  <defs>
    <style>
      .f3aaa0b5-de39-47e9-a9df-4080a56593a4 {
        fill: #fff;
      }
    </style>
  </defs>
  <title>gpu</title>
  <g>
    <path class="f3aaa0b5-de39-47e9-a9df-4080a56593a4" d="M1.6,11.5a5.1,5.1,0,0,1,.7-3,2.4,2.4,0,0,1,2-.9A2.1,2.1,0,0,1,6,8.4V7.7H7.9v8a3.6,3.6,0,0,1-.8,2.4,3.7,3.7,0,0,1-2.5.8l-1.4-.3a3,3,0,0,1-1.1-.7l.7-1.4.8.5.9.2a1.3,1.3,0,0,0,1-.3,1.8,1.8,0,0,0,.3-1.1v-.7a1.9,1.9,0,0,1-1.5.8,2.5,2.5,0,0,1-2-1,4.7,4.7,0,0,1-.7-2.8Zm2.1.5A3.2,3.2,0,0,0,4,13.6a.9.9,0,0,0,.9.5,1,1,0,0,0,.9-.4V9.8A1.1,1.1,0,0,0,4,9.8a3.7,3.7,0,0,0-.3,1.7Z"/>
    <path class="f3aaa0b5-de39-47e9-a9df-4080a56593a4" d="M15.7,12a5,5,0,0,1-.7,2.9,2.1,2.1,0,0,1-1.9,1,1.9,1.9,0,0,1-1.6-.8v3.7H9.4V7.7h2v.8a1.8,1.8,0,0,1,1.6-.9,2.2,2.2,0,0,1,1.9.9,5.4,5.4,0,0,1,.7,2.9Zm-2.1-.5a3.4,3.4,0,0,0-.3-1.7.8.8,0,0,0-.8-.5,1,1,0,0,0-1,.6v3.7c.2.4.5.5,1,.5s.7-.1.8-.5a3.2,3.2,0,0,0,.3-1.6Z"/>
    <path class="f3aaa0b5-de39-47e9-a9df-4080a56593a4" d="M20.9,15a2.3,2.3,0,0,1-1.8.9,2.1,2.1,0,0,1-1.7-.8,4.2,4.2,0,0,1-.5-2.2V7.7H19V13c0,.7.2,1.1.7,1.1a1.1,1.1,0,0,0,1.1-.6V7.7h2.1v8h-2Z"/>
  </g>
</svg>
