<svg id="b72e88ab-808c-4bc2-aefa-4b71c0ccc9cf" data-name="Layer 1" xmlns="http://www.w3.org/2000/svg" viewBox="0 0 24 24" width = "24" height = "24">
  <defs>
    <style>
      .ed635f74-8143-4bc0-be54-b9707fc602e2 {
        isolation: isolate;
      }

      .e2923350-45e5-4d0a-8e31-c95004f57b22 {
        fill: #fff;
      }
    </style>
  </defs>
  <g class="ed635f74-8143-4bc0-be54-b9707fc602e2">
    <g class="ed635f74-8143-4bc0-be54-b9707fc602e2">
      <path class="e2923350-45e5-4d0a-8e31-c95004f57b22" d="M7,7.1A1,1,0,0,1,8.1,6a1.2,1.2,0,0,1,.9.3A1.2,1.2,0,0,1,9,7.9a1.2,1.2,0,0,1-.9.3A1,1,0,0,1,7,7.1ZM9.2,17.3H7.1V9.2H9.2Z"/>
      <path class="e2923350-45e5-4d0a-8e31-c95004f57b22" d="M10.7,13a5.1,5.1,0,0,1,.7-3,2.2,2.2,0,0,1,1.9-.9,1.7,1.7,0,0,1,1.6.8V5.8H17V17.3H15.1v-.8a2,2,0,0,1-1.7.9,2.2,2.2,0,0,1-1.9-.9,4.8,4.8,0,0,1-.7-2.9Zm2.1.5a3.4,3.4,0,0,0,.3,1.7.8.8,0,0,0,.8.5,1,1,0,0,0,1-.6V11.4a1,1,0,0,0-1-.6,1,1,0,0,0-.8.5,3.4,3.4,0,0,0-.3,1.7Z"/>
    </g>
  </g>
</svg>
