<svg id="a612b875-0a73-4d42-abc8-6bec24504523" data-name="Layer 1" xmlns="http://www.w3.org/2000/svg" viewBox="0 0 24 24">
  <defs>
    <style>
      .bfdeb83a-e7af-414c-87b8-56592b13fcaf {
        fill: #fff;
      }

      .a28aaf6c-5463-4b33-876e-489cf6384da4 {
        fill: #e8e8e8;
      }
    </style>
  </defs>
  <title>last_purchase</title>
  <path class="bfdeb83a-e7af-414c-87b8-56592b13fcaf" d="M21.8,10.7h-.7V9.4H19.8v1.3H14.5V9.4H13.1v1.3h-.6A1.3,1.3,0,0,0,11.2,12v9.3a1.3,1.3,0,0,0,1.3,1.3h9.3a1.3,1.3,0,0,0,1.3-1.3V12A1.3,1.3,0,0,0,21.8,10.7Zm0,10.6H12.5V14h9.3Zm-8-6h3.3v3.4H13.8Z"/>
  <g>
    <path class="a28aaf6c-5463-4b33-876e-489cf6384da4" d="M11.2,17.5H4.3V7.1H16.5v3.6h1.8V7.1a1.9,1.9,0,0,0-1.8-1.7H14.7A4.4,4.4,0,0,0,10.4,1,4.4,4.4,0,0,0,6.1,5.4H4.3A1.8,1.8,0,0,0,2.5,7.1V17.5a1.8,1.8,0,0,0,1.8,1.8h6.9ZM10.4,2.7A2.6,2.6,0,0,1,13,5.4H7.8A2.6,2.6,0,0,1,10.4,2.7Z"/>
    <path class="a28aaf6c-5463-4b33-876e-489cf6384da4" d="M10.4,10.6A2.6,2.6,0,0,1,7.8,8H6.1a4.3,4.3,0,0,0,4.3,4.3h.8V12a1.3,1.3,0,0,1,1.3-1.3h.6V9.4h1.3A3.5,3.5,0,0,0,14.7,8H12.9A2.4,2.4,0,0,1,10.4,10.6Z"/>
  </g>
</svg>
