<svg id="a3ffd502-69f3-4900-b088-c192391e01a6" data-name="Layer 1" xmlns="http://www.w3.org/2000/svg" viewBox="0 0 24 24" width = "24" height = "24">
  <defs>
    <style>
      .e2196e05-5008-4281-9653-e5142fadeba1 {
        fill: #fff;
      }
    </style>
  </defs>
  <g>
    <path class="e2196e05-5008-4281-9653-e5142fadeba1" d="M5.6,8.7v.8a2.3,2.3,0,0,1,1.9-.9c1.3,0,2,.9,2.1,2.9v5.2H7.6V11.6a2.5,2.5,0,0,0-.2-1,.9.9,0,0,0-.7-.3,1,1,0,0,0-.9.6v5.8H3.7v-8Z"/>
    <path class="e2196e05-5008-4281-9653-e5142fadeba1" d="M11.2,6.7a1,1,0,0,1,.3-.8,1.1,1.1,0,0,1,.8-.3,1,1,0,0,1,.8.3,1,1,0,0,1,0,1.6,1,1,0,0,1-.8.3,1.1,1.1,0,0,1-.8-.3A1.3,1.3,0,0,1,11.2,6.7Zm2.2,10H11.3v-8h2.1Z"/>
    <path class="e2196e05-5008-4281-9653-e5142fadeba1" d="M21.2,13a6,6,0,0,1-.6,2.9,2.5,2.5,0,0,1-2,1,1.9,1.9,0,0,1-1.5-.8v3.7H15V8.7h1.9v.8a1.8,1.8,0,0,1,1.6-.9,2.4,2.4,0,0,1,2,.9,5.5,5.5,0,0,1,.6,2.9Zm-2.1-.5a5.9,5.9,0,0,0-.2-1.7,1.1,1.1,0,0,0-.9-.5,1,1,0,0,0-.9.6v3.7a.9.9,0,0,0,.9.5.9.9,0,0,0,.9-.5,3.4,3.4,0,0,0,.2-1.6Z"/>
  </g>
</svg>
