<svg id="ad851f1a-a3c8-41bb-b522-b16fdd72dec7" data-name="Layer 1" xmlns="http://www.w3.org/2000/svg" width= '24px' height = '24' viewBox="0 0 24 24">
  <defs>
    <style>
      .b620a10f-b957-4d2b-9dd0-41a25d77c6de {
        fill: none;
      }

      .e07a529c-7a83-43d8-895a-808319489cb7 {
        fill: #fff;
      }
    </style>
  </defs>
  <title>purchase</title>
  <path class="b620a10f-b957-4d2b-9dd0-41a25d77c6de" d="M1.6,1.3H22.5V22.2H1.6Z"/>
  <path class="e07a529c-7a83-43d8-895a-808319489cb7" d="M18.1,6.6H16.3a4.3,4.3,0,0,0-8.6,0H5.9A1.8,1.8,0,0,0,4.1,8.3V18.7a1.8,1.8,0,0,0,1.8,1.8H18.1a1.8,1.8,0,0,0,1.8-1.8V8.3A1.9,1.9,0,0,0,18.1,6.6ZM12,3.9a2.6,2.6,0,0,1,2.6,2.7H9.4A2.6,2.6,0,0,1,12,3.9Zm6.1,14.8H5.9V8.3H18.1ZM12,11.8A2.5,2.5,0,0,1,9.4,9.2H7.7A4.3,4.3,0,0,0,12,13.5a4.4,4.4,0,0,0,4.3-4.3H14.5A2.4,2.4,0,0,1,12,11.8Z"/>
</svg>
