<svg id="b49d1159-ee75-49f1-a218-f7ab268b511c" data-name="Layer 1" xmlns="http://www.w3.org/2000/svg" viewBox="0 0 24 24" width="24" height="24">
  <defs>
    <style>
      .fd74491f-43a4-44eb-babf-8c8270ff91d1 {
        isolation: isolate;
      }

      .e225bf65-1be5-4238-92e0-44205b7ebd91 {
        fill: #fff;
      }
    </style>
  </defs>
  <g class="fd74491f-43a4-44eb-babf-8c8270ff91d1">
    <g class="fd74491f-43a4-44eb-babf-8c8270ff91d1" >
      <path class="e225bf65-1be5-4238-92e0-44205b7ebd91" d="M5,17.3H2.9V9L.8,9.8V8l4-1.6H5Z"/>
      <path class="e225bf65-1be5-4238-92e0-44205b7ebd91" d="M14.7,17.3H8.3V15.8l2.9-3.7.9-1.4a5.2,5.2,0,0,0,.2-1.1,3.7,3.7,0,0,0-.2-1.2,1,1,0,0,0-.8-.4,1,1,0,0,0-.8.5,2.5,2.5,0,0,0-.3,1.3H8.1A3.9,3.9,0,0,1,8.5,8,3.7,3.7,0,0,1,9.7,6.7a3.3,3.3,0,0,1,1.7-.4,2.6,2.6,0,0,1,2.2.8,2.8,2.8,0,0,1,.8,2.3,3.9,3.9,0,0,1-.4,1.8,10.8,10.8,0,0,1-1.6,2.3l-1.4,2h3.7Z"/>
      <path class="e225bf65-1be5-4238-92e0-44205b7ebd91" d="M18.1,10.9h1c.4,0,.7-.1.8-.4a2,2,0,0,0,.3-1.1,1.5,1.5,0,0,0-.3-1,.7.7,0,0,0-.7-.4.8.8,0,0,0-.7.4,1.1,1.1,0,0,0-.3.8H16.1a2.8,2.8,0,0,1,.4-1.5,2.9,2.9,0,0,1,1.1-1.1,3.7,3.7,0,0,1,1.5-.3,3.2,3.2,0,0,1,2.4.8,3.2,3.2,0,0,1,.8,2.3,2,2,0,0,1-.4,1.3,1.7,1.7,0,0,1-1,1,2.9,2.9,0,0,1,1.2,1,3.3,3.3,0,0,1,.4,1.5,3,3,0,0,1-1,2.4,3.2,3.2,0,0,1-2.4.8,3.1,3.1,0,0,1-2.3-.8,3.4,3.4,0,0,1-.8-2.3h2.1a1.7,1.7,0,0,0,.3,1,1,1,0,0,0,1.6,0,1.8,1.8,0,0,0,.4-1.1c0-1.1-.5-1.6-1.3-1.6h-1Z"/>
    </g>
  </g>
</svg>
